<?xml version="1.0" encoding="iso-8859-1"?>
<!-- Generator: Adobe Illustrator 19.0.0, SVG Export Plug-In . SVG Version: 6.00 Build 0)  -->
<svg version="1.1" id="Capa_1" xmlns="http://www.w3.org/2000/svg" xmlns:xlink="http://www.w3.org/1999/xlink" x="0px" y="0px"
	 viewBox="0 0 512 512" style="enable-background:new 0 0 512 512;" xml:space="preserve">
<g>
	<g>
		<g>
			<path d="M479.184,240C471.128,129.084,382.916,40.872,272,32.816V0h-32v32.8c-25.007,1.659-49.552,7.545-72.592,17.408
				L180.08,79.6c19.032-8.17,39.273-13.17,59.92-14.8v32c-75.664,7.705-135.488,67.536-143.184,143.2h-32
				c1.578-19.939,6.298-39.503,13.984-57.968L49.264,169.68c-9.295,22.383-14.862,46.138-16.48,70.32H0v32h32.816
				C40.872,382.916,129.084,471.128,240,479.184V512h32v-32.816C382.916,471.128,471.128,382.916,479.184,272H512v-32H479.184z
				 M240,447.184C146.72,439.277,72.723,365.28,64.816,272h32C104.52,347.658,164.342,407.48,240,415.184V447.184z M256,384
				c-70.692,0-128-57.308-128-128s57.308-128,128-128s128,57.308,128,128C383.921,326.66,326.66,383.921,256,384z M272,447.184v-32
				C347.658,407.48,407.48,347.658,415.184,272h32C439.277,365.28,365.28,439.277,272,447.184z M415.184,240
				C407.48,164.342,347.658,104.52,272,96.816v-32C365.28,72.723,439.277,146.72,447.184,240H415.184z"/>
			<path d="M153.984,93.312l-17.008-27.088c-9.725,6.105-18.968,12.947-27.648,20.464l20.96,24.192
				C137.73,104.432,145.652,98.559,153.984,93.312z"/>
			<path d="M109.52,131.856l-24.4-20.688c-7.429,8.758-14.18,18.071-20.192,27.856l27.28,16.736
				C97.362,147.363,103.15,139.372,109.52,131.856z"/>
			<polygon points="272,192 240,192 240,240 192,240 192,272 240,272 240,320 272,320 272,272 320,272 320,240 272,240 			"/>
		</g>
	</g>
</g>
<g>
</g>
<g>
</g>
<g>
</g>
<g>
</g>
<g>
</g>
<g>
</g>
<g>
</g>
<g>
</g>
<g>
</g>
<g>
</g>
<g>
</g>
<g>
</g>
<g>
</g>
<g>
</g>
<g>
</g>
</svg>
